<?xml version="1.0" encoding="iso-8859-1"?>
<!-- Generator: Adobe Illustrator 19.0.0, SVG Export Plug-In . SVG Version: 6.00 Build 0)  -->
<svg version="1.1" id="Capa_1" xmlns="http://www.w3.org/2000/svg" xmlns:xlink="http://www.w3.org/1999/xlink" x="0px" y="0px"
	 viewBox="0 0 512 512" style="enable-background:new 0 0 512 512;" xml:space="preserve">
<g>
	<g>
		<g>
			<path d="M272,266.667h-37.333V320H272c14.708,0,26.667-11.958,26.667-26.667C298.667,278.625,286.708,266.667,272,266.667z"/>
			<path d="M288,218.667C288,203.958,276.042,192,261.333,192h-26.667v53.333h26.667C276.042,245.333,288,233.375,288,218.667z"/>
			<path d="M256,0C114.833,0,0,114.844,0,256s114.833,256,256,256s256-114.844,256-256S397.167,0,256,0z M256,448
				c-105.875,0-192-86.135-192-192S150.125,64,256,64s192,86.135,192,192S361.875,448,256,448z"/>
			<path d="M256,85.333c-94.104,0-170.667,76.563-170.667,170.667S161.896,426.667,256,426.667S426.667,350.104,426.667,256
				S350.104,85.333,256,85.333z M288,338.384V352c0,5.896-4.771,10.667-10.667,10.667c-5.896,0-10.667-4.771-10.667-10.667v-10.667
				h-21.333V352c0,5.896-4.771,10.667-10.667,10.667c-5.896,0-10.667-4.771-10.667-10.667v-10.667h-21.333
				c-5.896,0-10.667-4.771-10.667-10.667c0-5.896,4.771-10.667,10.667-10.667h10.667V192h-10.667
				c-5.896,0-10.667-4.771-10.667-10.667c0-5.896,4.771-10.667,10.667-10.667H224V160c0-5.896,4.771-10.667,10.667-10.667
				c5.896,0,10.667,4.771,10.667,10.667v10.667h16c1.827,0,3.56,0.34,5.333,0.539V160c0-5.896,4.771-10.667,10.667-10.667
				c5.896,0,10.667,4.771,10.667,10.667v18.794c12.849,8.622,21.333,23.27,21.333,39.872c0,12.833-5.063,24.51-13.292,33.125
				C310.354,260.115,320,275.615,320,293.333C320,314.163,306.579,331.758,288,338.384z"/>
		</g>
	</g>
</g>
<g>
</g>
<g>
</g>
<g>
</g>
<g>
</g>
<g>
</g>
<g>
</g>
<g>
</g>
<g>
</g>
<g>
</g>
<g>
</g>
<g>
</g>
<g>
</g>
<g>
</g>
<g>
</g>
<g>
</g>
</svg>
