<?xml version="1.0" encoding="iso-8859-1"?>
<!-- Generator: Adobe Illustrator 18.0.0, SVG Export Plug-In . SVG Version: 6.00 Build 0)  -->
<!DOCTYPE svg PUBLIC "-//W3C//DTD SVG 1.1//EN" "http://www.w3.org/Graphics/SVG/1.1/DTD/svg11.dtd">
<svg xmlns="http://www.w3.org/2000/svg" xmlns:xlink="http://www.w3.org/1999/xlink" version="1.1" id="Capa_1" x="0px" y="0px" viewBox="0 0 142.447 142.447" style="enable-background:new 0 0 142.447 142.447;" xml:space="preserve" width="512px" height="512px">
<g>
	<path d="M142.348,74.967c0.064-1.24,0.099-2.487,0.099-3.743C142.447,31.951,110.496,0,71.223,0   S0,31.951,0,71.224s31.95,71.224,71.223,71.224c36.839,0,67.235-28.115,70.86-64.015c0.234-0.726,0.364-1.499,0.364-2.303   C142.447,75.733,142.407,75.347,142.348,74.967z M71.223,15c30.132,0,54.797,23.828,56.158,53.63H15.066   C16.427,38.828,41.092,15,71.223,15z M71.223,127.447c-26.738,0-49.16-18.767-54.826-43.817H126.05   C120.384,108.68,97.961,127.447,71.223,127.447z" fill="#FFFFFF"/>
</g>
<g>
</g>
<g>
</g>
<g>
</g>
<g>
</g>
<g>
</g>
<g>
</g>
<g>
</g>
<g>
</g>
<g>
</g>
<g>
</g>
<g>
</g>
<g>
</g>
<g>
</g>
<g>
</g>
<g>
</g>
</svg>
