<?xml version="1.0" encoding="iso-8859-1"?>
<!-- Generator: Adobe Illustrator 19.0.0, SVG Export Plug-In . SVG Version: 6.00 Build 0)  -->
<svg xmlns="http://www.w3.org/2000/svg" xmlns:xlink="http://www.w3.org/1999/xlink" version="1.1" id="Capa_1" x="0px" y="0px" viewBox="0 0 511.934 511.934" style="enable-background:new 0 0 511.934 511.934;" xml:space="preserve" width="512px" height="512px">
<g>
	<g>
		<path d="M495.435,479.43c-6.826-2.563-14.138-6.796-15.568-8.585c-0.36-1.835-1.985-3.226-3.93-3.226    c-2.209,0-3.998,1.789-3.998,3.999c0,7.179,17.232,14.006,20.691,15.303c6.297,2.352,7.305,3.929,7.305,7.804v9.21h-87.988v-9.21    c0-3.875,1.008-5.453,7.295-7.812c4.86-1.82,20.717-8.312,20.717-15.295c0-2.21-1.789-3.999-4-3.999    c-1.945,0-3.563,1.391-3.922,3.226c-1.445,1.781-8.763,6.015-15.607,8.585c-6.037,2.258-12.482,5.491-12.482,15.295v13.209    c0,2.211,1.789,4,4,4h95.989c2.209,0,3.998-1.789,3.996-4v-13.209C507.933,484.913,501.482,481.688,495.435,479.43z" fill="#4e2093"/>
	</g>
</g>
<g>
	<g>
		<path d="M455.943,407.948c-18.232,0-31.98,14.466-31.98,33.651c0,19.38,18.31,38.339,31.98,38.339    c13.677,0,31.996-18.959,31.996-38.339C487.939,422.102,474.48,407.948,455.943,407.948z M455.943,471.939    c-7.898,0-23.982-14.045-23.982-30.34c0-14.865,10.086-25.653,23.982-25.653c13.904,0,23.996,10.788,23.996,25.653    C479.939,457.894,463.847,471.939,455.943,471.939z" fill="#4e2093"/>
	</g>
</g>
<g>
	<g>
		<path d="M475.939,459.05c-2.209,0-3.998,1.788-3.998,3.999v8.569c0,2.211,1.789,3.999,3.998,3.999c2.211,0,4-1.788,4-3.999v-8.569    C479.939,460.838,478.15,459.05,475.939,459.05z" fill="#4e2093"/>
	</g>
</g>
<g>
	<g>
		<path d="M435.96,459.05c-2.211,0-4,1.788-4,3.999v8.569c0,2.211,1.789,3.999,4,3.999s4-1.788,4-3.999v-8.569    C439.96,460.838,438.171,459.05,435.96,459.05z" fill="#4e2093"/>
	</g>
</g>
<g>
	<g>
		<path d="M95.49,479.429c-6.823-2.562-14.13-6.796-15.564-8.577c-0.36-1.842-1.98-3.233-3.925-3.233c-2.211,0-4,1.789-4,3.999    c0,7.179,17.225,14.006,20.685,15.303c6.296,2.352,7.304,3.929,7.304,7.804v9.21H12.001v-9.21c0-3.868,1.008-5.453,7.304-7.812    c4.854-1.82,20.708-8.304,20.708-15.295c0-2.21-1.789-3.999-4-3.999c-1.945,0-3.566,1.391-3.925,3.226    c-1.437,1.781-8.757,6.015-15.592,8.585c-6.047,2.258-12.495,5.491-12.495,15.295v13.209c0,2.211,1.789,4,4,4h95.987    c2.211,0,4-1.789,4.001-4.001v-13.209C107.989,484.912,101.532,481.687,95.49,479.429z" fill="#4e2093"/>
	</g>
</g>
<g>
	<g>
		<path d="M56.002,407.948c-18.236,0-31.988,14.466-31.988,33.651c0,19.38,18.318,38.339,31.988,38.339    c13.674,0,31.996-18.959,31.996-38.339C87.998,422.102,74.543,407.948,56.002,407.948z M56.002,471.939    c-7.898,0-23.989-14.045-23.989-30.34c0-14.865,10.089-25.653,23.989-25.653c13.904,0,23.997,10.788,23.997,25.653    C79.999,457.894,63.903,471.939,56.002,471.939z" fill="#4e2093"/>
	</g>
</g>
<g>
	<g>
		<path d="M76,459.05c-2.211,0-4,1.788-4,3.999v8.569c0,2.211,1.789,3.999,4,3.999c2.21,0,3.999-1.788,3.999-3.999v-8.569    C79.999,460.838,78.21,459.05,76,459.05z" fill="#4e2093"/>
	</g>
</g>
<g>
	<g>
		<path d="M36.012,459.05c-2.211,0-4,1.788-4,3.999v8.569c0,2.211,1.789,3.999,4,3.999s4-1.788,4-3.999v-8.569    C40.012,460.838,38.223,459.05,36.012,459.05z" fill="#4e2093"/>
	</g>
</g>
<g>
	<g>
		<path d="M495.435,71.483c-6.826-2.562-14.138-6.795-15.568-8.584c-0.36-1.835-1.985-3.226-3.93-3.226    c-2.209,0-3.998,1.789-3.998,3.999c0,7.179,17.232,14.007,20.691,15.303c6.297,2.352,7.305,3.93,7.305,7.804v9.21h-87.988v-9.21    c0-3.874,1.008-5.453,7.295-7.812c4.86-1.82,20.717-8.312,20.717-15.295c0-2.21-1.789-3.999-4-3.999    c-1.945,0-3.563,1.391-3.922,3.226c-1.445,1.78-8.763,6.014-15.607,8.584c-6.037,2.258-12.482,5.492-12.482,15.295v13.209    c0,2.211,1.789,4,4,4h95.989c2.209,0,3.998-1.79,3.996-4V86.778C507.933,76.967,501.482,73.741,495.435,71.483z" fill="#4e2093"/>
	</g>
</g>
<g>
	<g>
		<path d="M455.943,0c-18.232,0-31.98,14.466-31.98,33.651c0,19.381,18.31,38.339,31.98,38.339    c13.677,0,31.996-18.958,31.996-38.339C487.939,14.154,474.48,0,455.943,0z M455.943,63.991c-7.898,0-23.982-14.045-23.982-30.34    c0-14.865,10.086-25.652,23.982-25.652c13.904,0,23.996,10.787,23.996,25.652C479.939,49.946,463.847,63.991,455.943,63.991z" fill="#4e2093"/>
	</g>
</g>
<g>
	<g>
		<path d="M475.939,51.102c-2.209,0-3.998,1.79-3.998,4v8.569c0,2.211,1.789,4,3.998,4c2.211,0,4-1.789,4-4v-8.569    C479.939,52.891,478.15,51.102,475.939,51.102z" fill="#4e2093"/>
	</g>
</g>
<g>
	<g>
		<path d="M435.96,51.102c-2.211,0-4,1.79-4,4v8.569c0,2.211,1.789,4,4,4s4-1.789,4-4v-8.569    C439.96,52.891,438.171,51.102,435.96,51.102z" fill="#4e2093"/>
	</g>
</g>
<g>
	<g>
		<path d="M95.49,71.484c-6.823-2.562-14.13-6.796-15.564-8.577c-0.36-1.843-1.98-3.234-3.925-3.234c-2.211,0-4,1.789-4,3.999    c0,7.179,17.225,14.007,20.685,15.303c6.296,2.352,7.304,3.93,7.304,7.804v9.21H12.001v-9.21c0-3.867,1.008-5.453,7.304-7.812    c4.854-1.82,20.708-8.304,20.708-15.295c0-2.21-1.789-3.999-4-3.999c-1.945,0-3.566,1.391-3.925,3.226    c-1.437,1.78-8.757,6.014-15.592,8.584c-6.047,2.258-12.495,5.492-12.495,15.295v13.209c0,2.211,1.789,4,4,4h95.987    c2.211,0,4-1.79,4.001-3.999V86.779C107.989,76.968,101.532,73.742,95.49,71.484z" fill="#4e2093"/>
	</g>
</g>
<g>
	<g>
		<path d="M56.002,0C37.766,0,24.014,14.466,24.014,33.651c0,19.381,18.318,38.339,31.988,38.339    c13.674,0,31.996-18.958,31.996-38.339C87.998,14.154,74.543,0,56.002,0z M56.002,63.991c-7.898,0-23.989-14.045-23.989-30.34    c0-14.865,10.089-25.652,23.989-25.652c13.904,0,23.997,10.787,23.997,25.652C79.999,49.946,63.903,63.991,56.002,63.991z" fill="#4e2093"/>
	</g>
</g>
<g>
	<g>
		<path d="M76,51.102c-2.211,0-4,1.79-4,4v8.569c0,2.211,1.789,4,4,4c2.21,0,3.999-1.789,3.999-4v-8.569    C79.999,52.891,78.21,51.102,76,51.102z" fill="#4e2093"/>
	</g>
</g>
<g>
	<g>
		<path d="M36.012,51.102c-2.211,0-4,1.79-4,4v8.569c0,2.211,1.789,4,4,4s4-1.789,4-4v-8.569    C40.012,52.891,38.223,51.102,36.012,51.102z" fill="#4e2093"/>
	</g>
</g>
<g>
	<g>
		<path d="M211.592,300.664c-0.957-2-3.348-2.836-5.332-1.883c-9.151,4.368-20.177,8.593-27.672,11.389    c-14.315,5.352-22.599,11.499-22.599,27.091v26.653c0,2.21,1.79,3.999,4,3.999s3.999-1.789,4-3.999v-26.653    c0-10.28,3.737-14.49,17.396-19.591c7.639-2.852,18.883-7.164,28.32-11.671C211.701,305.046,212.545,302.664,211.592,300.664z" fill="#4e2093"/>
	</g>
</g>
<g>
	<g>
		<path d="M333.357,310.17c-7.469-2.78-18.459-6.998-27.684-11.42c-1.984-0.945-4.383-0.125-5.336,1.883    c-0.953,1.992-0.109,4.382,1.883,5.335c9.514,4.554,20.733,8.858,28.34,11.702c13.654,5.101,17.396,9.311,17.396,19.591v26.653    c0,2.21,1.789,3.999,4,3.999s3.998-1.789,3.999-3.999v-26.653C355.955,321.669,347.668,315.522,333.357,310.17z" fill="#4e2093"/>
	</g>
</g>
<g>
	<g>
		<path d="M311.773,222.963c-2.209,0-3.998,1.79-3.998,4c0,35.558-32.434,68.959-51.986,68.959    c-19.556,0-51.993-33.401-51.993-68.959c0-2.211-1.789-4-4-4c-2.21,0-3.999,1.79-3.999,4c0,40.986,37.389,76.959,59.992,76.959    c22.599,0,59.984-35.973,59.984-76.959C315.773,224.752,313.984,222.963,311.773,222.963z" fill="#4e2093"/>
	</g>
</g>
<g>
	<g>
		<path d="M308.736,175.791c-6.258-7.304-14.475-8.616-18.553-8.78c-0.438-1.921-0.719-4.718,0.32-7.335    c1.062-2.68,3.406-4.781,6.982-6.25c1.641-0.679,2.641-2.359,2.453-4.124c-0.188-1.765-1.516-3.203-3.266-3.515    c-0.398-0.071-9.935-1.766-23.121-1.766c-19.81,0-46.931,3.851-63.652,22.208c-11.608,12.748-16.432,30.573-14.338,52.985    c0.16,1.687,1.363,3.085,3.003,3.499c1.649,0.429,3.368-0.25,4.309-1.656l14.236-21.357c6.445,2.297,22.044,7.14,38.679,7.14    c16.568,0,31.832-4.811,38.199-7.116l14.225,21.333c0.75,1.125,2.006,1.781,3.326,1.781c0.282,0,0.571-0.031,0.86-0.092    c1.61-0.352,2.836-1.664,3.094-3.289C318.617,199.374,316.343,184.688,308.736,175.791z M308.735,207.426l-9.867-14.803    c-0.758-1.141-2.023-1.781-3.328-1.781c-0.523,0-1.045,0.102-1.553,0.312c-0.18,0.079-18.467,7.687-38.199,7.687    c-19.701,0-38.538-7.624-38.726-7.702c-1.777-0.734-3.796-0.102-4.847,1.484l-9.073,13.607    c0.535-14.334,4.776-25.949,12.67-34.612c18.393-20.2,52.645-20.497,69.659-19.115c-1,1.288-1.804,2.695-2.406,4.226    c-3.086,7.795,0.438,15.693,0.586,16.021c0.727,1.593,2.438,2.515,4.18,2.304c0.102-0.007,0.602-0.062,1.383-0.062    c3.101,0,8.966,0.782,13.443,6C307.29,186.413,309.352,195.444,308.735,207.426z" fill="#4e2093"/>
	</g>
</g>
<g>
	<g>
		<path d="M311.773,214.838c-2.209,0-3.998,1.789-3.998,4v8.124c0,2.211,1.789,4,3.998,4c2.211,0,4-1.789,4-4v-8.124    C315.773,216.627,313.984,214.838,311.773,214.838z" fill="#4e2093"/>
	</g>
</g>
<g>
	<g>
		<path d="M199.796,214.838c-2.21,0-3.999,1.789-3.999,4v8.124c0,2.211,1.789,4,3.999,4c2.211,0,4-1.789,4-4v-8.124    C203.796,216.627,202.007,214.838,199.796,214.838z" fill="#4e2093"/>
	</g>
</g>
<g>
	<g>
		<path d="M259.792,306.14c-0.981-1.977-3.39-2.773-5.359-1.805l-13.533,6.726l-21.966-21.966c-1.563-1.562-4.094-1.562-5.656,0    s-1.562,4.093,0,5.655l23.997,23.998c0.769,0.765,1.793,1.171,2.828,1.171c0.606,0,1.215-0.133,1.777-0.414l16.107-7.999    C259.968,310.522,260.776,308.124,259.792,306.14z" fill="#4e2093"/>
	</g>
</g>
<g>
	<g>
		<path d="M298.915,289.095c-1.562-1.562-4.093-1.562-5.654,0l-21.967,21.966l-13.541-6.726c-1.972-0.967-4.379-0.172-5.359,1.805    c-0.984,1.984-0.175,4.382,1.805,5.366l16.111,7.999c0.57,0.281,1.179,0.414,1.781,0.414c1.039,0,2.063-0.406,2.828-1.171    l23.996-23.998C300.477,293.189,300.477,290.657,298.915,289.095z" fill="#4e2093"/>
	</g>
</g>
<g>
	<g>
		<path d="M259.226,321.091l-7.999-7.999c-1.563-1.562-4.094-1.562-5.656,0c-1.562,1.562-1.562,4.094,0,5.656l7.999,7.998    c0.781,0.781,1.805,1.172,2.828,1.172s2.047-0.39,2.828-1.172C260.788,325.184,260.788,322.653,259.226,321.091z" fill="#4e2093"/>
	</g>
</g>
<g>
	<g>
		<path d="M267.224,313.092c-1.562-1.562-4.092-1.562-5.654,0l-8,7.999c-1.562,1.562-1.562,4.093,0,5.655    c0.781,0.781,1.805,1.172,2.828,1.172s2.047-0.39,2.828-1.172l7.998-7.998C268.786,317.186,268.786,314.654,267.224,313.092z" fill="#4e2093"/>
	</g>
</g>
<g>
	<g>
		<path d="M252.84,315.944c-2.132-0.18-4.171,1.343-4.417,3.53l-4,35.995c-0.242,2.203,1.34,4.18,3.535,4.422    c0.148,0.015,0.297,0.023,0.445,0.023c2.011,0,3.745-1.515,3.972-3.554l4-35.995C256.617,318.163,255.035,316.186,252.84,315.944z    " fill="#4e2093"/>
	</g>
</g>
<g>
	<g>
		<path d="M268.372,355.468l-3.998-35.995c-0.242-2.186-2.16-3.718-4.418-3.53c-2.196,0.242-3.777,2.219-3.535,4.421l4,35.995    c0.227,2.039,1.961,3.555,3.969,3.555c0.146,0,0.295-0.008,0.451-0.024C267.028,359.648,268.614,357.671,268.372,355.468z" fill="#4e2093"/>
	</g>
</g>
<g>
	<g>
		<path d="M351.957,359.914H159.989c-2.211,0-4,1.789-4,4c0,2.21,1.79,3.999,4,3.999h191.967c2.211,0,3.998-1.789,3.999-3.999    C355.955,361.703,354.168,359.914,351.957,359.914z" fill="#4e2093"/>
	</g>
</g>
<g>
	<g>
		<path d="M146.627,377.116c-1.562-1.547-4.093-1.554-5.655,0.008l-39.886,39.994c-1.558,1.57-1.558,4.102,0.008,5.664    c0.781,0.773,1.801,1.164,2.824,1.164c1.027,0,2.05-0.391,2.832-1.172l39.885-39.995    C148.193,381.209,148.193,378.678,146.627,377.116z" fill="#4e2093"/>
	</g>
</g>
<g>
	<g>
		<path d="M111.987,415.946h-8.069c-2.211,0-4,1.789-4,4s1.789,4,4,4h8.069c2.21,0,3.999-1.789,3.999-4    S114.197,415.946,111.987,415.946z" fill="#4e2093"/>
	</g>
</g>
<g>
	<g>
		<path d="M103.988,407.947c-2.211,0-4,1.788-4,3.999v7.89c0,2.211,1.789,4,4,4s4-1.789,4-4v-7.89    C107.988,409.735,106.199,407.947,103.988,407.947z" fill="#4e2093"/>
	</g>
</g>
<g>
	<g>
		<path d="M410.784,417.118l-39.887-39.994c-1.56-1.563-4.1-1.555-5.662-0.008c-1.563,1.562-1.563,4.093-0.008,5.663l39.885,39.995    c0.781,0.781,1.813,1.172,2.836,1.172c1.024,0,2.047-0.391,2.828-1.164C412.339,421.22,412.339,418.688,410.784,417.118z" fill="#4e2093"/>
	</g>
</g>
<g>
	<g>
		<path d="M407.948,415.946h-8.061c-2.211,0-4,1.789-4,4s1.789,4,4,4h8.061c2.211,0,4-1.789,4-4S410.159,415.946,407.948,415.946z" fill="#4e2093"/>
	</g>
</g>
<g>
	<g>
		<path d="M407.886,407.947c-2.211,0-4,1.788-4,3.999v7.89c0,2.211,1.789,4,4,4s4-1.789,4-4v-7.89    C411.886,409.735,410.097,407.947,407.886,407.947z" fill="#4e2093"/>
	</g>
</g>
<g>
	<g>
		<path d="M146.634,161.15l-39.885-39.994c-1.562-1.563-4.094-1.555-5.656-0.008c-1.566,1.562-1.566,4.093-0.008,5.663    l39.886,39.995c0.781,0.781,1.805,1.172,2.832,1.172c1.023,0,2.043-0.39,2.823-1.164    C148.193,165.252,148.193,162.72,146.634,161.15z" fill="#4e2093"/>
	</g>
</g>
<g>
	<g>
		<path d="M111.987,119.985h-8.069c-2.211,0-4,1.789-4,3.999c0,2.211,1.789,4,4,4h8.069c2.21,0,3.999-1.789,3.999-4    C115.986,121.774,114.197,119.985,111.987,119.985z" fill="#4e2093"/>
	</g>
</g>
<g>
	<g>
		<path d="M103.988,120.094c-2.211,0-4,1.789-4,3.999v7.89c0,2.211,1.789,4,4,4s4-1.789,4-4v-7.89    C107.988,121.883,106.199,120.094,103.988,120.094z" fill="#4e2093"/>
	</g>
</g>
<g>
	<g>
		<path d="M410.777,121.148c-1.562-1.547-4.102-1.554-5.664,0.008l-39.885,39.994c-1.554,1.571-1.554,4.102,0.008,5.664    c0.781,0.773,1.805,1.164,2.828,1.164s2.052-0.39,2.834-1.172l39.887-39.995C412.339,125.241,412.339,122.71,410.777,121.148z" fill="#4e2093"/>
	</g>
</g>
<g>
	<g>
		<path d="M407.948,119.985h-8.061c-2.211,0-4,1.789-4,3.999c0,2.211,1.789,4,4,4h8.061c2.211,0,4-1.789,4-4    C411.948,121.774,410.159,119.985,407.948,119.985z" fill="#4e2093"/>
	</g>
</g>
<g>
	<g>
		<path d="M407.886,120.094c-2.211,0-4,1.789-4,3.999v7.89c0,2.211,1.789,4,4,4s4-1.789,4-4v-7.89    C411.886,121.883,410.097,120.094,407.886,120.094z" fill="#4e2093"/>
	</g>
</g>
<g>
	<g>
		<path d="M339.271,41.205l-5.703-5.694c-1.562-1.562-4.094-1.562-5.656,0s-1.562,4.093,0,5.655l5.703,5.695    c0.781,0.781,1.805,1.171,2.828,1.171c1.023,0,2.046-0.39,2.828-1.171C340.832,45.299,340.832,42.767,339.271,41.205z" fill="#4e2093"/>
	</g>
</g>
<g>
	<g>
		<path d="M339.145,41.244c-1.562-1.562-4.094-1.562-5.656,0l-5.578,5.578c-1.562,1.562-1.562,4.094,0,5.656    c0.781,0.781,1.805,1.171,2.828,1.171c1.024,0,2.047-0.39,2.828-1.171l5.578-5.578C340.706,45.338,340.706,42.806,339.145,41.244z    " fill="#4e2093"/>
	</g>
</g>
<g>
	<g>
		<path d="M184.5,46.986l-5.694-5.695c-1.562-1.562-4.093-1.562-5.655,0c-1.562,1.563-1.562,4.094,0,5.656l5.694,5.695    c0.782,0.781,1.805,1.171,2.828,1.171c1.024,0,2.046-0.39,2.827-1.171C186.062,51.079,186.062,48.548,184.5,46.986z" fill="#4e2093"/>
	</g>
</g>
<g>
	<g>
		<path d="M184.5,35.675c-1.562-1.562-4.093-1.562-5.655,0l-5.577,5.577c-1.562,1.563-1.562,4.094,0,5.656    c0.781,0.781,1.804,1.171,2.827,1.171c1.024,0,2.047-0.39,2.828-1.171l5.577-5.578C186.062,39.768,186.062,37.237,184.5,35.675z" fill="#4e2093"/>
	</g>
</g>
<g>
	<g>
		<path d="M336.442,40.119H175.978c-2.21,0-3.999,1.789-3.999,4c0,2.21,1.789,3.999,3.999,3.999h160.465    c2.211,0,3.998-1.788,3.997-3.999C340.44,41.908,338.653,40.119,336.442,40.119z" fill="#4e2093"/>
	</g>
</g>
<g>
	<g>
		<path d="M339.271,465.08l-5.703-5.702c-1.562-1.562-4.094-1.562-5.656,0c-1.562,1.561-1.562,4.093,0,5.655l5.703,5.702    c0.781,0.781,1.805,1.172,2.828,1.172c1.023,0,2.046-0.39,2.828-1.172C340.832,469.174,340.832,466.642,339.271,465.08z" fill="#4e2093"/>
	</g>
</g>
<g>
	<g>
		<path d="M339.145,465.112c-1.562-1.562-4.094-1.562-5.656,0l-5.578,5.577c-1.562,1.562-1.562,4.093,0,5.655    c0.781,0.781,1.805,1.172,2.828,1.172c1.024,0,2.047-0.391,2.828-1.172l5.578-5.577    C340.706,469.206,340.706,466.674,339.145,465.112z" fill="#4e2093"/>
	</g>
</g>
<g>
	<g>
		<path d="M184.504,470.861l-5.694-5.702c-1.562-1.562-4.097-1.562-5.659,0c-1.563,1.562-1.563,4.093-0.004,5.655l5.694,5.702    c0.782,0.781,1.809,1.172,2.832,1.172c1.024,0,2.046-0.391,2.827-1.172C186.063,474.955,186.063,472.423,184.504,470.861z" fill="#4e2093"/>
	</g>
</g>
<g>
	<g>
		<path d="M184.5,459.55c-1.562-1.562-4.093-1.562-5.655,0l-5.577,5.577c-1.562,1.562-1.562,4.093,0,5.655    c0.781,0.781,1.804,1.172,2.827,1.172c1.024,0,2.047-0.39,2.828-1.172l5.577-5.577C186.062,463.643,186.062,461.112,184.5,459.55z    " fill="#4e2093"/>
	</g>
</g>
<g>
	<g>
		<path d="M336.442,463.987H175.978c-2.21,0-3.999,1.789-3.999,4c0,2.21,1.789,3.999,3.999,3.999h160.465    c2.211,0,3.998-1.79,3.997-3.999C340.44,465.776,338.653,463.987,336.442,463.987z" fill="#4e2093"/>
	</g>
</g>
<g>
	<g>
		<path d="M464.503,323.677c-1.562-1.562-4.093-1.562-5.654,0l-5.703,5.694c-1.562,1.562-1.562,4.093,0,5.655    c0.781,0.781,1.805,1.172,2.828,1.172c1.023,0,2.047-0.39,2.828-1.172l5.701-5.694    C466.065,327.77,466.065,325.239,464.503,323.677z" fill="#4e2093"/>
	</g>
</g>
<g>
	<g>
		<path d="M458.771,329.254l-5.578-5.577c-1.562-1.562-4.094-1.562-5.656,0c-1.562,1.561-1.562,4.093,0,5.655l5.578,5.577    c0.781,0.781,1.805,1.172,2.828,1.172c1.023,0,2.046-0.39,2.828-1.172C460.332,333.348,460.332,330.816,458.771,329.254z" fill="#4e2093"/>
	</g>
</g>
<g>
	<g>
		<path d="M458.724,176.906c-1.562-1.562-4.094-1.562-5.656,0l-5.703,5.695c-1.562,1.562-1.562,4.094,0,5.656    c0.781,0.781,1.805,1.171,2.828,1.171c1.023,0,2.046-0.39,2.828-1.171l5.703-5.695C460.285,181,460.285,178.468,458.724,176.906z" fill="#4e2093"/>
	</g>
</g>
<g>
	<g>
		<path d="M464.331,182.601l-5.576-5.578c-1.562-1.562-4.094-1.562-5.656,0c-1.562,1.563-1.562,4.094,0,5.656l5.578,5.578    c0.781,0.781,1.803,1.171,2.826,1.171c1.024,0,2.047-0.39,2.828-1.171C465.893,186.694,465.893,184.163,464.331,182.601z" fill="#4e2093"/>
	</g>
</g>
<g>
	<g>
		<path d="M455.896,175.735c-2.211,0-4,1.789-4,4v152.464c0,2.21,1.789,3.999,4,3.999s4-1.789,4-3.998V179.735    C459.896,177.524,458.107,175.735,455.896,175.735z" fill="#4e2093"/>
	</g>
</g>
<g>
	<g>
		<path d="M64.567,323.677c-1.562-1.562-4.097-1.562-5.659,0l-5.702,5.694c-1.563,1.562-1.563,4.093-0.004,5.655    c0.781,0.781,1.808,1.172,2.831,1.172s2.047-0.39,2.828-1.172l5.702-5.694C66.126,327.77,66.126,325.239,64.567,323.677z" fill="#4e2093"/>
	</g>
</g>
<g>
	<g>
		<path d="M58.83,329.254l-5.577-5.577c-1.563-1.562-4.094-1.562-5.656,0c-1.562,1.561-1.562,4.093,0,5.655l5.578,5.577    c0.781,0.781,1.804,1.172,2.827,1.172s2.047-0.39,2.828-1.172C60.392,333.348,60.392,330.816,58.83,329.254z" fill="#4e2093"/>
	</g>
</g>
<g>
	<g>
		<path d="M58.787,176.906c-1.562-1.562-4.097-1.562-5.659,0l-5.703,5.695c-1.562,1.562-1.562,4.094-0.004,5.656    c0.781,0.781,1.809,1.171,2.832,1.171c1.023,0,2.047-0.39,2.828-1.171l5.702-5.695C60.346,181,60.346,178.468,58.787,176.906z" fill="#4e2093"/>
	</g>
</g>
<g>
	<g>
		<path d="M64.391,182.601l-5.577-5.578c-1.562-1.562-4.093-1.562-5.655,0c-1.562,1.563-1.562,4.094,0,5.656l5.577,5.578    c0.782,0.781,1.805,1.171,2.828,1.171s2.046-0.39,2.827-1.171C65.953,186.694,65.953,184.163,64.391,182.601z" fill="#4e2093"/>
	</g>
</g>
<g>
	<g>
		<path d="M55.955,175.735c-2.21,0-3.999,1.789-3.999,4v152.464c0,2.21,1.789,3.999,3.999,3.999c2.211,0,4-1.789,4-3.998V179.735    C59.955,177.524,58.166,175.735,55.955,175.735z" fill="#4e2093"/>
	</g>
</g>
<g>
</g>
<g>
</g>
<g>
</g>
<g>
</g>
<g>
</g>
<g>
</g>
<g>
</g>
<g>
</g>
<g>
</g>
<g>
</g>
<g>
</g>
<g>
</g>
<g>
</g>
<g>
</g>
<g>
</g>
</svg>
