<?xml version="1.0" encoding="iso-8859-1"?>
<!-- Generator: Adobe Illustrator 19.0.0, SVG Export Plug-In . SVG Version: 6.00 Build 0)  -->
<svg xmlns="http://www.w3.org/2000/svg" xmlns:xlink="http://www.w3.org/1999/xlink" version="1.1" id="Capa_1" x="0px" y="0px" viewBox="0 0 446.992 446.992" style="enable-background:new 0 0 446.992 446.992;" xml:space="preserve" width="512px" height="512px">
<g>
	<g>
		<path d="M445.296,280.569c-4.976-21.936-22.08-40.048-43.68-46.352c-16.912-4.944-32.976-2.848-46.416,3.824    c-6.432,3.184-5.824,12.608,0.976,14.88l37.472,12.544c14.368,5.12,24.112,20.08,20.64,36.832    c-2.416,11.68-11.792,21.44-23.376,24.24c-18.864,4.544-35.904-7.728-39.28-24.848l26.4,9.184    c8.368,2.768,17.408-1.76,20.208-10.128c2.8-8.4-1.744-17.472-10.16-20.256L16.448,159.641c-1.376-0.544-2.864-0.896-4.448-0.896    c-6.624,0-12,5.376-12,12c0,5.136,3.248,9.44,7.792,11.152L144,229.065v96.736c0,15.76,9.648,30.384,25.168,33.168    c12.464,2.24,23.712-2.864,30.688-11.552l65.84-75.648l53.792,18.72c-0.16,1.664-0.48,3.296-0.48,4.992    c0,35.296,28.704,64,63.984,64C423.152,359.481,454.784,322.313,445.296,280.569z M175.088,327.769v-0.4l0.304-0.352l-0.304,0.336    l0.368-86.992l57.936,20.16L175.088,327.769z" fill="#FFFFFF"/>
	</g>
</g>
<g>
	<g>
		<path d="M431.504,87.497H110.496c-8.528,0-15.488,6.976-15.488,15.488v1.008c0,8.528,6.96,15.504,15.488,15.504h3.984    l10.576,48.592c1.2,5.52,5.232,10,10.592,11.776l157.712,52.32c11.472,3.808,24.112,0.816,32.672-7.744l102.224-104.944h3.248    c8.528,0,15.488-6.976,15.488-15.488v-1.024C447.008,94.473,440.032,87.497,431.504,87.497z" fill="#FFFFFF"/>
	</g>
</g>
<g>
</g>
<g>
</g>
<g>
</g>
<g>
</g>
<g>
</g>
<g>
</g>
<g>
</g>
<g>
</g>
<g>
</g>
<g>
</g>
<g>
</g>
<g>
</g>
<g>
</g>
<g>
</g>
<g>
</g>
</svg>
